<svg width="152.000000" height="152.000000" viewBox="0 0 152 152" fill="none" xmlns="http://www.w3.org/2000/svg"
  xmlns:xlink="http://www.w3.org/1999/xlink">
  <desc>
    Created with Pixso.
  </desc>
  <defs />
  <rect id="Favicon / 152" width="152.000000" height="152.000000" fill="#FFFFFF" fill-opacity="0" />
  <rect id="Rectangle 1" width="152.000000" height="152.000000" fill="#EEEEEE" fill-opacity="1.000000" />
  <path id="Vector"
    d="M36.3 95.83C33.9 92.36 32.76 88.21 33.04 84.03L33.04 66.96C32.74 62.75 33.87 58.56 36.25 55.04C38.4 52.33 42.09 50.98 47.29 51C52.5 51.01 56.02 52.2 57.87 54.57C60.12 57.5 61.21 61.12 60.96 64.78L60.96 68.78L51.34 68.78L51.34 64.44C51.32 63.3 51.22 62.16 51.03 61.03C50.92 60.21 50.53 59.45 49.94 58.87C49.58 58.56 49.15 58.33 48.69 58.18C48.23 58.04 47.75 57.98 47.27 58.02C46.58 57.92 45.87 58.03 45.25 58.34C44.63 58.64 44.11 59.13 43.78 59.73C43.17 61.33 42.9 63.03 42.99 64.74L42.99 86.39C42.89 88.11 43.2 89.82 43.9 91.4C44.23 91.96 44.73 92.42 45.33 92.72C45.93 93.01 46.6 93.13 47.27 93.06C47.92 93.15 48.59 93.03 49.17 92.73C49.76 92.43 50.23 91.95 50.52 91.37C51.08 89.77 51.33 88.08 51.24 86.39L51.24 81.84L60.87 81.84L60.87 85.78C61.15 89.49 60.14 93.18 58.01 96.26C55.96 98.77 52.43 100 47.41 100C42.39 100 38.46 98.63 36.3 95.83Z"
    fill="#111111" fill-opacity="1.000000" fill-rule="nonzero" />
  <path id="Vector"
    d="M73.46 52L84.6 52L94 99L84.74 99L83.07 88.61L75.27 88.61L73.39 98.93L64 98.93L73.46 52ZM82.04 82.7L79.08 63.81L76.14 82.7L82.04 82.7Z"
    fill="#111111" fill-opacity="1.000000" fill-rule="nonzero" />
  <path id="Vector" d="M100.55 59.08L93 59.08L93 52L118 52L118 59.08L110.53 59.08L110.53 99L100.53 99L100.55 59.08Z"
    fill="#111111" fill-opacity="1.000000" fill-rule="nonzero" />
</svg>