<svg width="33.000000" height="38.000000" viewBox="0 0 33 38" fill="none" xmlns="http://www.w3.org/2000/svg" xmlns:xlink="http://www.w3.org/1999/xlink">
	<desc>
			Created with Pixso.
	</desc>
	<defs>
		<clipPath id="clip37030_424">
			<rect id="logo-mobile " width="33.000000" height="38.000000" fill="white" fill-opacity="0"/>
		</clipPath>
	</defs>
	<rect id="logo-mobile " width="33.000000" height="38.000000" fill="#FFFFFF" fill-opacity="0"/>
	<g clip-path="url(#clip37030_424)">
		<path id="Vector" d="M6.01 20.93L6.01 18.65C12.63 17.72 19.3 17.27 25.98 17.3C25.98 17.91 25.98 18.53 25.92 19.14C27.82 18.28 29.82 17.66 31.87 17.3C30.56 13.86 28.18 10.95 25.1 9.02C22.01 7.09 18.39 6.25 14.79 6.62C11.19 6.99 7.81 8.56 5.17 11.09C2.53 13.62 0.78 16.96 0.18 20.6L6.01 20.93Z" fill="#FDC305" fill-opacity="1.000000" fill-rule="nonzero"/>
		<path id="Vector" d="M26.97 24.48C25.82 25.77 25.6 25.69 25.6 27.96C25.6 28.88 25.6 32.91 25.6 37.24C27.87 35.71 29.73 33.63 31.02 31.18C32.31 28.74 32.99 26.01 33 23.23C32.98 22.18 32.88 21.13 32.68 20.1C30.63 21.34 28.71 22.81 26.97 24.48Z" fill="#FDC305" fill-opacity="1.000000" fill-rule="nonzero"/>
		<path id="Vector" d="M6.29 25.98C6.29 25.98 2.54 24.53 1.15 24.13C0.77 24.01 0.39 23.92 0 23.85C0.1 26.77 0.95 29.6 2.46 32.08C3.97 34.56 6.08 36.6 8.59 38L6.29 25.98Z" fill="#FDC305" fill-opacity="1.000000" fill-rule="nonzero"/>
		<path id="Vector" d="M26.03 17.29C26.07 11.71 25.61 6.14 24.65 0.65C24.65 0.65 24.51 -0.65 23.76 0.41C23.18 1.67 22.78 3.01 22.58 4.39C18.36 4.11 14.13 4.23 9.93 4.73C9.15 2.02 7.77 0.75 7.11 1.01C6.44 1.26 6.39 4.35 6.39 4.35L6.07 18.6C12.68 17.68 19.36 17.25 26.03 17.29Z" fill="#F06351" fill-opacity="1.000000" fill-rule="nonzero"/>
		<path id="Vector" d="M12.29 14.14C12.29 14.05 13.28 14.83 13.68 15.07C14.09 15.31 14.29 15.49 14.29 15.67C14.29 15.84 14.02 16.01 13.66 16.01C13.31 16.01 12.76 15.89 12.67 15.74L13.6 15.74L13.89 15.74C13.29 15.28 12.75 14.74 12.29 14.14Z" fill="#000000" fill-opacity="1.000000" fill-rule="nonzero"/>
		<path id="Vector" d="M19.69 14.25L18.61 15.6C18.61 15.66 18.45 15.95 18.79 15.9C19.2 15.84 19.61 15.74 20 15.61C20.11 15.61 20.07 15.41 19.89 15.43C19.71 15.45 19.21 15.48 18.9 15.54L19.73 14.27C19.73 14.27 19.8 14.14 19.69 14.25Z" fill="#000000" fill-opacity="1.000000" fill-rule="nonzero"/>
		<path id="Vector" d="M16.58 20.4C17.04 20.2 17.42 19.84 17.66 19.39C17.94 18.74 17.66 18.47 17.23 18.38C16.63 18.27 16.02 18.4 15.5 18.73C15.12 19.09 15.17 19.45 15.46 19.74C15.8 20.01 16.18 20.23 16.58 20.4Z" fill="#000000" fill-opacity="1.000000" fill-rule="nonzero"/>
		<path id="Vector" d="M16.19 21.67C16.08 21.9 15.92 22.1 15.73 22.27C15.45 22.51 15.1 22.64 14.74 22.66C14.22 22.7 13.7 22.55 13.29 22.22C13.09 22.1 12.91 21.95 12.76 21.78C12.66 21.67 12.54 21.58 12.4 21.52C12.4 21.52 13.15 25.66 14.95 26.32C16.75 26.97 17.07 25.56 17.13 25.17C17.19 24.03 16.91 22.89 16.32 21.91C16.3 21.6 16.29 21.8 16.19 21.67Z" fill="#F06351" fill-opacity="1.000000" fill-rule="nonzero"/>
		<path id="Vector" d="M14.56 22.82C14.1 22.75 13.66 22.59 13.26 22.35C12.87 22.1 12.52 21.77 12.26 21.38C12.24 21.37 12.23 21.36 12.23 21.34C12.22 21.32 12.21 21.3 12.21 21.28C12.21 21.26 12.22 21.25 12.23 21.23C12.23 21.21 12.24 21.2 12.26 21.18C12.27 21.17 12.28 21.16 12.3 21.15C12.32 21.14 12.34 21.14 12.36 21.14C12.37 21.14 12.39 21.14 12.41 21.15C12.43 21.16 12.44 21.17 12.45 21.18C12.95 21.88 13.71 22.36 14.54 22.5C14.87 22.47 15.19 22.37 15.47 22.19C15.75 22.01 15.99 21.77 16.16 21.49L16.3 21.29L16.4 21.51C16.4 21.51 16.76 22.27 17.39 22.31C18.01 22.35 18.43 21.9 18.98 21.02C18.99 21.01 19.01 21 19.03 20.99C19.04 20.98 19.06 20.98 19.08 20.98C19.1 20.98 19.12 20.98 19.13 20.99C19.15 21 19.17 21.01 19.18 21.02C19.21 21.04 19.23 21.07 19.24 21.11C19.25 21.15 19.25 21.19 19.23 21.22C18.59 22.23 17.97 22.68 17.37 22.64C17.14 22.6 16.92 22.52 16.73 22.38C16.53 22.25 16.37 22.07 16.26 21.87C16.06 22.15 15.81 22.38 15.52 22.54C15.22 22.7 14.9 22.8 14.56 22.82Z" fill="#000000" fill-opacity="1.000000" fill-rule="nonzero"/>
		<path id="Vector" d="M25.98 19.11C24.2 20.75 22.53 22.5 20.96 24.36C19.41 26.2 17.65 27.86 15.72 29.3C15.5 28.76 14.12 27.77 14.12 27.77C14.12 27.77 11.02 25.61 8.99 23.91C7.89 22.97 6.86 21.96 5.89 20.88L3.91 20.77C6.77 25.02 10.96 28.15 15.79 29.66C16.64 29.52 19.03 27.78 20.81 26.37C22.91 24.53 24.88 22.54 26.7 20.41C27.19 19.82 27.58 19.13 27.83 18.39C26.74 18.79 25.98 19.11 25.98 19.11Z" fill="#F06351" fill-opacity="1.000000" fill-rule="nonzero"/>
	</g>
</svg>
